<?xml version="1.0" standalone="no"?><svg xmlns="http://www.w3.org/2000/svg" viewBox="0 0 1440 320"><path fill="#ffffff" fill-opacity="1" d="M0,96L21.8,90.7C43.6,85,87,75,131,85.3C174.5,96,218,128,262,117.3C305.5,107,349,53,393,64C436.4,75,480,149,524,202.7C567.3,256,611,288,655,272C698.2,256,742,192,785,192C829.1,192,873,256,916,234.7C960,213,1004,107,1047,74.7C1090.9,43,1135,85,1178,122.7C1221.8,160,1265,192,1309,197.3C1352.7,203,1396,181,1418,170.7L1440,160L1440,320L1418.2,320C1396.4,320,1353,320,1309,320C1265.5,320,1222,320,1178,320C1134.5,320,1091,320,1047,320C1003.6,320,960,320,916,320C872.7,320,829,320,785,320C741.8,320,698,320,655,320C610.9,320,567,320,524,320C480,320,436,320,393,320C349.1,320,305,320,262,320C218.2,320,175,320,131,320C87.3,320,44,320,22,320L0,320Z"></path></svg>