<?xml version="1.0" standalone="no"?><svg xmlns="http://www.w3.org/2000/svg" viewBox="0 0 1440 320"><path fill="#ffffff" fill-opacity="1" d="M0,224L16,213.3C32,203,64,181,96,165.3C128,149,160,139,192,160C224,181,256,235,288,224C320,213,352,139,384,138.7C416,139,448,213,480,202.7C512,192,544,96,576,80C608,64,640,128,672,133.3C704,139,736,85,768,53.3C800,21,832,11,864,21.3C896,32,928,64,960,85.3C992,107,1024,117,1056,106.7C1088,96,1120,64,1152,96C1184,128,1216,224,1248,234.7C1280,245,1312,171,1344,128C1376,85,1408,75,1424,69.3L1440,64L1440,320L1424,320C1408,320,1376,320,1344,320C1312,320,1280,320,1248,320C1216,320,1184,320,1152,320C1120,320,1088,320,1056,320C1024,320,992,320,960,320C928,320,896,320,864,320C832,320,800,320,768,320C736,320,704,320,672,320C640,320,608,320,576,320C544,320,512,320,480,320C448,320,416,320,384,320C352,320,320,320,288,320C256,320,224,320,192,320C160,320,128,320,96,320C64,320,32,320,16,320L0,320Z"></path></svg>